<svg width="18" height="13" viewBox="0 0 18 13" fill="none" xmlns="http://www.w3.org/2000/svg">
<path fill-rule="evenodd" clip-rule="evenodd" d="M1.51414 0.553955L1.69876 1.07088H2.21568L1.79106 1.38473L1.95722 1.8832L1.51414 1.56935L1.10798 1.8832L1.27414 1.38473L0.831055 1.07088H1.38491L1.51414 0.553955ZM4.56032 0.553955L4.72648 1.07088H5.26187L4.81879 1.38473L5.0034 1.8832L4.56032 1.56935L4.11724 1.8832L4.30186 1.38473L3.85878 1.07088H4.39417L4.56032 0.553955ZM7.60651 0.553955L7.77266 1.07088H8.30805L7.86497 1.38473L8.04959 1.8832L7.60651 1.56935L7.16343 1.8832L7.34804 1.38473L6.90496 1.07088H7.44035L7.60651 0.553955ZM10.6342 0.553955L10.8188 1.07088H11.3358L10.9112 1.38473L11.0773 1.8832L10.6342 1.56935L10.2096 1.8832L10.3758 1.38473L9.93268 1.07088H10.4865L10.6342 0.553955ZM13.6804 0.553955L13.8466 1.07088H14.382L13.9389 1.38473L14.1235 1.8832L13.662 1.56935L13.2373 1.8832L13.4035 1.38473L12.9604 1.07088H13.4958L13.6804 0.553955ZM16.7266 0.553955L16.8928 1.07088H17.4281L16.9851 1.38473L17.1697 1.8832L16.7266 1.56935L16.2835 1.8832L16.4681 1.38473L16.0251 1.07088H16.5604L16.7266 0.553955ZM3.04646 1.84627L3.21262 2.3632H3.74801L3.30493 2.67705L3.48954 3.17552L3.04646 2.86167L2.60338 3.17552L2.788 2.67705L2.34492 2.3632H2.88031L3.04646 1.84627ZM6.07418 1.84627L6.2588 2.3632H6.77573L6.35111 2.67705L6.51727 3.17552L6.07418 2.86167L5.64956 3.17552L5.81572 2.67705L5.37264 2.3632H5.92649L6.07418 1.84627ZM9.12037 1.84627L9.28652 2.3632H9.82191L9.37883 2.67705L9.56345 3.17552L9.12037 2.86167L8.67729 3.17552L8.8619 2.67705L8.41882 2.3632H8.95421L9.12037 1.84627ZM12.1666 1.84627L12.3327 2.3632H12.8681L12.425 2.67705L12.6096 3.17552L12.1666 2.86167L11.7235 3.17552L11.9081 2.67705L11.465 2.3632H12.0004L12.1666 1.84627ZM15.1943 1.84627L15.3789 2.3632H15.8774L15.4527 2.67705L15.6189 3.17552L15.1758 2.86167L14.7512 3.17552L14.9174 2.67705L14.4743 2.3632H15.0281L15.1943 1.84627ZM1.5326 3.13859L1.68029 3.65552H2.23415L1.79106 3.96937L1.95722 4.46784L1.51414 4.15399L1.10798 4.46784L1.27414 3.96937L0.831055 3.65552H1.38491L1.5326 3.13859ZM4.56032 3.13859L4.72648 3.65552H5.26187L4.83725 3.96937L5.0034 4.46784L4.56032 4.15399L4.1357 4.46784L4.30186 3.96937L3.85878 3.65552H4.39417L4.56032 3.13859ZM7.60651 3.13859L7.77266 3.65552H8.30805L7.86497 3.96937L8.04959 4.46784L7.60651 4.15399L7.16343 4.46784L7.34804 3.96937L6.90496 3.65552H7.44035L7.60651 3.13859ZM10.6342 3.13859L10.8188 3.65552H11.3358L10.9112 3.96937L11.0773 4.46784L10.6342 4.15399L10.2096 4.46784L10.3758 3.96937L9.93268 3.65552H10.4865L10.6342 3.13859ZM13.6804 3.13859L13.8466 3.65552H14.382L13.9573 3.96937L14.1235 4.46784L13.6804 4.15399L13.2558 4.46784L13.4219 3.96937L12.9789 3.65552H13.5143L13.6804 3.13859ZM16.7266 3.13859L16.8928 3.65552H17.4281L16.9851 3.96937L17.1697 4.46784L16.7266 4.15399L16.2835 4.46784L16.4681 3.96937L16.0251 3.65552H16.5604L16.7266 3.13859ZM3.04646 4.43091L3.21262 4.94784H3.74801L3.30493 5.26169L3.48954 5.76016L3.04646 5.44631L2.60338 5.76016L2.788 5.26169L2.34492 4.94784H2.88031L3.04646 4.43091ZM6.07418 4.43091L6.2588 4.94784H6.77573L6.35111 5.26169L6.51727 5.76016L6.07418 5.44631L5.64956 5.76016L5.81572 5.26169L5.37264 4.94784H5.92649L6.07418 4.43091ZM9.12037 4.43091L9.28652 4.94784H9.82191L9.39729 5.26169L9.56345 5.76016L9.12037 5.44631L8.69575 5.76016L8.8619 5.26169L8.41882 4.94784H8.95421L9.12037 4.43091ZM12.1666 4.43091L12.3327 4.94784H12.8681L12.425 5.26169L12.6096 5.76016L12.1666 5.44631L11.7235 5.76016L11.9081 5.26169L11.465 4.94784H12.0004L12.1666 4.43091ZM15.1943 4.43091L15.3789 4.94784H15.8774L15.4527 5.26169L15.6189 5.76016L15.1758 5.44631L14.7512 5.76016L14.9174 5.26169L14.4743 4.94784H15.0281L15.1943 4.43091ZM1.5326 5.72323L1.68029 6.24016H2.23415L1.79106 6.55401L1.95722 7.05248L1.51414 6.73863L1.10798 7.05248L1.27414 6.55401L0.831055 6.24016H1.38491L1.5326 5.72323ZM4.56032 5.72323L4.72648 6.24016H5.26187L4.83725 6.55401L5.0034 7.05248L4.56032 6.73863L4.1357 7.05248L4.30186 6.55401L3.85878 6.24016H4.39417L4.56032 5.72323ZM7.60651 5.72323L7.77266 6.24016H8.30805L7.86497 6.55401L8.04959 7.05248L7.60651 6.73863L7.16343 7.05248L7.34804 6.55401L6.90496 6.24016H7.44035L7.60651 5.72323ZM10.6342 5.72323L10.8188 6.24016H11.3358L10.9112 6.55401L11.0773 7.05248L10.6342 6.73863L10.2096 7.05248L10.3758 6.55401L9.93268 6.24016H10.4865L10.6342 5.72323ZM13.6804 5.72323L13.8466 6.24016H14.382L13.9573 6.55401L14.1235 7.05248L13.6804 6.73863L13.2558 7.05248L13.4219 6.55401L12.9789 6.24016H13.5143L13.6804 5.72323ZM16.7266 5.72323L16.8928 6.24016H17.4281L16.9851 6.55401L17.1697 7.05248L16.7266 6.73863L16.2835 7.05248L16.4681 6.55401L16.0251 6.24016H16.5604L16.7266 5.72323ZM3.04646 7.01555L3.21262 7.53248H3.74801L3.30493 7.84633L3.48954 8.3448L3.04646 8.03095L2.60338 8.3448L2.788 7.84633L2.34492 7.53248H2.88031L3.04646 7.01555ZM6.07418 7.01555L6.2588 7.53248H6.77573L6.35111 7.84633L6.51727 8.3448L6.07418 8.03095L5.64956 8.3448L5.81572 7.84633L5.37264 7.53248H5.92649L6.07418 7.01555ZM9.12037 7.01555L9.28652 7.53248H9.82191L9.39729 7.84633L9.56345 8.3448L9.12037 8.03095L8.69575 8.3448L8.8619 7.84633L8.41882 7.53248H8.95421L9.12037 7.01555ZM12.1666 7.01555L12.3327 7.53248H12.8681L12.425 7.84633L12.6096 8.3448L12.1666 8.03095L11.7235 8.3448L11.9081 7.84633L11.465 7.53248H12.0004L12.1666 7.01555ZM15.1943 7.01555L15.3789 7.53248H15.8774L15.4527 7.84633L15.6189 8.3448L15.1758 8.03095L14.7512 8.3448L14.9174 7.84633L14.4743 7.53248H15.0281L15.1943 7.01555ZM1.5326 8.30787L1.68029 8.8248H2.23415L1.79106 9.13865L1.95722 9.63712L1.51414 9.32327L1.10798 9.63712L1.27414 9.13865L0.831055 8.8248H1.38491L1.5326 8.30787ZM4.56032 8.30787L4.72648 8.8248H5.26187L4.83725 9.13865L5.0034 9.63712L4.56032 9.32327L4.1357 9.63712L4.30186 9.13865L3.85878 8.8248H4.39417L4.56032 8.30787ZM7.60651 8.30787L7.77266 8.8248H8.30805L7.86497 9.13865L8.04959 9.63712L7.60651 9.32327L7.16343 9.63712L7.34804 9.13865L6.90496 8.8248H7.44035L7.60651 8.30787ZM10.6342 8.30787L10.8188 8.8248H11.3358L10.9112 9.13865L11.0773 9.63712L10.6342 9.32327L10.2096 9.63712L10.3758 9.13865L9.93268 8.8248H10.4865L10.6342 8.30787ZM13.6804 8.30787L13.8466 8.8248H14.382L13.9573 9.13865L14.1235 9.63712L13.6804 9.32327L13.2558 9.63712L13.4219 9.13865L12.9789 8.8248H13.5143L13.6804 8.30787ZM16.7266 8.30787L16.8928 8.8248H17.4281L16.9851 9.13865L17.1697 9.63712L16.7266 9.32327L16.2835 9.63712L16.4681 9.13865L16.0251 8.8248H16.5604L16.7266 8.30787ZM3.04646 9.60019L3.21262 10.1171H3.74801L3.30493 10.431L3.48954 10.9294L3.04646 10.6156L2.60338 10.9294L2.788 10.431L2.34492 10.1171H2.88031L3.04646 9.60019ZM6.07418 9.60019L6.2588 10.1171H6.77573L6.35111 10.431L6.51727 10.9294L6.07418 10.6156L5.64956 10.9294L5.81572 10.431L5.37264 10.1171H5.92649L6.07418 9.60019ZM9.12037 9.60019L9.28652 10.1171H9.82191L9.39729 10.431L9.56345 10.9294L9.12037 10.6156L8.69575 10.9294L8.8619 10.431L8.41882 10.1171H8.95421L9.12037 9.60019ZM12.1666 9.60019L12.3327 10.1171H12.8681L12.425 10.431L12.6096 10.9294L12.1666 10.6156L11.7235 10.9294L11.9081 10.431L11.465 10.1171H12.0004L12.1666 9.60019ZM15.1943 9.60019L15.3789 10.1171H15.8774L15.4527 10.431L15.6189 10.9294L15.1758 10.6156L14.7512 10.9294L14.9174 10.431L14.4743 10.1171H15.0281L15.1943 9.60019ZM1.5326 10.8925L1.68029 11.4094H2.23415L1.79106 11.7233L1.95722 12.2218L1.51414 11.9079L1.10798 12.2218L1.27414 11.7233L0.831055 11.4094H1.38491L1.5326 10.8925ZM4.56032 10.8925L4.72648 11.4094H5.26187L4.83725 11.7233L5.0034 12.2218L4.56032 11.9079L4.1357 12.2218L4.30186 11.7233L3.85878 11.4094H4.39417L4.56032 10.8925ZM7.60651 10.8925L7.77266 11.4094H8.30805L7.86497 11.7233L8.04959 12.2218L7.60651 11.9079L7.16343 12.2218L7.34804 11.7233L6.90496 11.4094H7.44035L7.60651 10.8925ZM10.6342 10.8925L10.8188 11.4094H11.3358L10.9112 11.7233L11.0773 12.2218L10.6342 11.9079L10.2096 12.2218L10.3758 11.7233L9.93268 11.4094H10.4865L10.6342 10.8925ZM13.6804 10.8925L13.8466 11.4094H14.382L13.9573 11.7233L14.1235 12.2218L13.6804 11.9079L13.2558 12.2218L13.4219 11.7233L12.9789 11.4094H13.5143L13.6804 10.8925ZM16.7266 10.8925L16.8928 11.4094H17.4281L16.9851 11.7233L17.1697 12.2218L16.7266 11.9079L16.2835 12.2218L16.4681 11.7233L16.0251 11.4094H16.5604L16.7266 10.8925Z" fill="white"/>
</svg>
